<?xml version="1.0" standalone="no"?>
<!DOCTYPE svg PUBLIC "-//W3C//DTD SVG 20010904//EN"
 "http://www.w3.org/TR/2001/REC-SVG-20010904/DTD/svg10.dtd">
<svg version="1.0" xmlns="http://www.w3.org/2000/svg"
 width="268.000000pt" height="188.000000pt" viewBox="0 0 268.000000 188.000000"
 preserveAspectRatio="xMidYMid meet">

<g transform="translate(0.000000,188.000000) scale(0.100000,-0.100000)"
fill="#000000" stroke="none">
<path d="M986 1777 c-28 -21 -17 -61 18 -67 47 -8 266 0 266 11 0 5 -10 9 -22
10 -13 0 -18 3 -11 5 7 3 9 12 6 20 -3 8 0 14 6 14 6 0 11 5 11 10 0 16 -252
13 -274 -3z"/>
<path d="M1594 1782 c-13 -9 -14 -42 -1 -42 5 0 4 -7 -3 -15 -11 -13 -4 -15
52 -15 82 0 111 26 72 64 -16 17 -99 22 -120 8z"/>
<path d="M886 1681 c-5 -8 -18 -10 -32 -7 -22 6 -23 5 -12 -13 9 -16 9 -23 -3
-37 -13 -15 -12 -16 9 -10 16 5 24 3 28 -8 8 -20 24 -21 24 -1 0 9 10 19 22
24 18 7 19 8 4 14 -9 4 -20 16 -25 28 -5 16 -10 19 -15 10z"/>
<path d="M1034 1676 c-3 -9 -3 -27 0 -40 5 -22 -1 -29 -75 -68 -96 -51 -217
-160 -277 -248 -47 -71 -98 -195 -114 -279 -16 -84 -5 -253 22 -331 25 -75 74
-177 97 -202 17 -19 40 -14 25 5 -18 23 -71 128 -91 182 -30 80 -42 208 -30
313 19 158 118 340 241 443 123 104 275 174 261 120 -6 -23 18 -28 113 -23 56
3 73 8 82 23 11 18 9 19 -32 19 -24 0 -64 3 -90 6 -65 9 -39 24 42 24 40 0 61
4 57 10 -3 6 -2 10 2 10 5 0 9 9 10 20 2 17 -4 20 -41 20 -24 0 -77 3 -119 6
-66 6 -77 5 -83 -10z"/>
<path d="M1585 1681 c-25 -5 -30 -11 -30 -34 1 -16 -3 -31 -7 -33 -5 -3 -6
-10 -3 -15 4 -5 1 -9 -5 -9 -12 0 -45 -29 -39 -34 2 -2 21 -6 41 -10 31 -6 41
-3 59 15 l23 23 75 -40 c104 -54 242 -190 295 -292 99 -190 111 -395 35 -592
-16 -41 -40 -92 -54 -112 -14 -20 -25 -42 -25 -47 0 -52 88 90 120 194 32 99
39 276 15 382 -49 222 -187 395 -403 504 -51 25 -53 28 -33 38 29 16 28 57 -1
65 -13 3 -25 5 -28 5 -3 -1 -19 -4 -35 -8z"/>
<path d="M1779 1685 c-1 -5 -2 -16 -3 -23 0 -7 -7 -16 -14 -21 -11 -7 -11 -9
2 -14 9 -4 16 -16 16 -27 0 -24 15 -27 24 -4 4 10 14 14 26 11 22 -6 26 3 8
21 -8 8 -8 15 3 28 13 16 12 17 -13 11 -20 -5 -30 -3 -37 10 -6 10 -11 14 -12
8z"/>
<path d="M682 1562 c-7 -12 -17 -20 -22 -17 -5 3 -11 1 -15 -5 -3 -5 -1 -10 4
-10 6 0 11 -11 11 -25 0 -22 3 -24 19 -15 13 7 22 7 26 0 11 -18 27 -11 20 9
-3 11 -1 22 5 26 17 10 11 25 -9 25 -11 0 -21 8 -23 18 -3 15 -6 14 -16 -6z"/>
<path d="M1981 1556 c-8 -9 -23 -16 -34 -16 -20 0 -20 -1 -2 -14 12 -8 16 -20
13 -34 -5 -18 -3 -20 12 -12 10 6 26 7 34 4 11 -4 16 0 16 13 0 10 5 24 12 31
9 9 8 12 -5 12 -9 0 -20 7 -25 16 -8 14 -10 14 -21 0z"/>
<path d="M1146 1468 c-3 -29 -6 -117 -6 -195 0 -78 -3 -149 -6 -158 -11 -28
-90 92 -98 150 -9 67 -7 116 6 132 36 44 -75 -25 -141 -88 -49 -46 -56 -49
-63 -33 -6 13 -7 7 -4 -18 3 -25 0 -41 -10 -49 -8 -7 -13 -17 -11 -23 2 -6 -5
-24 -16 -40 -19 -27 -21 -28 -34 -10 -12 16 -13 15 -13 -14 0 -18 5 -32 10
-32 7 0 7 -7 0 -21 -7 -11 -17 -18 -25 -16 -9 4 -11 -1 -8 -14 3 -12 11 -18
19 -15 8 3 14 1 14 -5 0 -20 -21 -49 -35 -49 -9 0 -12 -6 -9 -15 4 -10 14 -13
31 -9 l25 7 -27 -43 c-14 -23 -24 -44 -21 -48 3 -3 6 0 6 6 0 7 7 12 15 12 18
0 19 -11 3 -45 -7 -15 -17 -24 -25 -21 -17 7 -17 -8 1 -23 10 -9 15 -8 20 4 3
8 10 15 16 15 13 0 2 -72 -13 -81 -6 -4 -5 -9 1 -13 6 -3 18 4 26 16 19 26 35
15 18 -12 -7 -11 -12 -27 -12 -36 0 -11 -5 -14 -16 -10 -14 5 -15 4 -4 -9 17
-20 27 -19 33 5 9 33 29 23 25 -12 -3 -29 -7 -34 -38 -38 l-35 -6 34 -8 c33
-8 42 -3 54 29 8 20 15 -1 10 -27 -3 -16 -12 -28 -20 -28 -8 0 -11 -5 -8 -10
11 -18 35 -11 35 10 0 11 5 20 10 20 6 0 10 -18 10 -39 0 -33 -4 -40 -22 -44
-17 -3 -14 -5 10 -6 25 -1 32 3 32 18 0 30 16 33 29 5 14 -33 14 -54 -1 -54
-9 0 -8 -4 2 -10 23 -15 40 -12 40 7 0 12 9 7 30 -18 42 -52 77 -64 140 -49
44 10 50 15 50 37 0 23 -3 25 -37 21 -35 -5 -113 22 -113 38 0 4 29 3 65 -1
60 -6 65 -5 65 13 0 27 -18 32 -113 32 -71 0 -84 3 -94 20 -12 17 -9 20 24 26
21 4 64 3 96 -3 32 -5 60 -6 63 -1 11 17 -54 32 -137 32 -87 1 -119 12 -119
42 0 11 7 12 28 7 15 -4 43 -6 62 -5 63 6 95 5 119 -3 19 -7 22 -5 19 11 -3
17 -14 19 -120 20 -111 0 -148 9 -148 34 0 4 52 7 115 7 63 0 118 3 122 7 4 4
-4 39 -17 79 -20 58 -29 73 -47 75 -13 2 -23 10 -23 18 0 11 18 14 83 14 45 0
87 4 93 8 6 4 10 26 9 50 -1 23 -3 152 -3 287 -2 233 -12 308 -26 193z"/>
<path d="M1202 1283 c3 -131 2 -269 -1 -308 l-6 -70 -37 -3 c-21 -2 -38 -6
-38 -10 0 -4 12 -42 27 -85 l28 -78 63 3 c58 2 65 4 74 28 18 48 20 80 8 110
-13 31 -40 41 -40 15 0 -8 -5 -15 -11 -15 -5 0 -7 5 -4 10 3 6 -1 13 -9 16
-16 6 -23 44 -8 44 4 0 7 130 7 290 l0 290 -29 0 -29 0 5 -237z"/>
<path d="M1290 1251 c0 -148 -3 -276 -6 -284 -7 -19 28 -40 51 -31 12 5 15 14
10 33 -4 14 -6 144 -6 289 l1 262 -25 0 -25 0 0 -269z"/>
<path d="M1374 1360 c0 -91 2 -128 3 -82 2 45 2 119 0 165 -1 45 -3 8 -3 -83z"/>
<path d="M1391 1313 c0 -115 -4 -228 -9 -253 -11 -49 -11 -114 0 -125 3 -4 15
-4 25 -1 17 5 18 22 16 288 -2 156 -3 286 -3 291 0 4 -7 7 -15 7 -13 0 -15
-29 -14 -207z"/>
<path d="M1459 1263 c0 -142 -2 -271 -3 -288 -1 -16 2 -37 8 -46 7 -12 5 -21
-7 -34 -9 -9 -17 -12 -17 -6 0 13 -27 15 -34 3 -9 -14 37 -143 54 -152 8 -4
37 -10 65 -11 l49 -4 19 63 c23 75 17 112 -17 112 -13 0 -26 7 -30 15 -4 13 9
15 89 15 52 0 95 -4 95 -9 0 -5 -15 -18 -34 -29 -26 -16 -38 -33 -54 -82 -12
-35 -19 -67 -15 -73 4 -6 40 -8 97 -4 94 6 121 1 107 -21 -6 -9 -41 -14 -117
-17 -59 -1 -110 -7 -112 -13 -4 -14 73 -24 139 -16 65 7 77 -4 34 -32 -19 -13
-43 -15 -107 -13 -69 3 -83 1 -86 -12 -2 -12 7 -15 45 -15 26 0 61 -4 77 -8
26 -6 27 -8 12 -25 -13 -14 -27 -17 -64 -14 -53 5 -102 -9 -102 -30 0 -11 12
-13 51 -9 29 3 49 1 46 -4 -6 -10 -81 -49 -109 -58 -28 -8 -21 -24 18 -41 32
-13 38 -13 60 1 13 9 28 30 32 47 10 39 31 48 24 10 -2 -15 -9 -34 -15 -40 -6
-9 -6 -13 1 -13 6 0 14 4 17 10 3 5 21 10 38 11 18 0 41 4 52 9 15 6 8 9 -27
9 -27 1 -48 6 -48 11 0 6 4 10 9 10 5 0 12 12 16 27 8 33 24 55 35 48 4 -3 11
6 14 20 9 37 26 30 26 -10 0 -30 3 -35 23 -35 12 0 29 5 37 10 11 7 8 10 -16
10 -29 0 -31 2 -32 41 -2 50 6 66 22 44 9 -13 11 -8 8 27 -4 38 -3 41 12 29
14 -12 16 -11 16 6 0 25 10 35 24 24 8 -7 11 14 11 71 0 44 3 82 6 84 4 2 16
-10 27 -27 l19 -31 17 23 c9 13 16 33 15 44 -1 16 -3 15 -12 -7 -6 -16 -14
-28 -18 -28 -13 0 -59 66 -59 83 0 25 15 21 30 -8 8 -14 18 -24 24 -22 14 4
40 57 32 64 -3 3 -10 -6 -15 -21 -10 -25 -31 -36 -31 -16 0 6 -10 24 -21 40
-14 18 -19 35 -15 47 7 16 10 15 28 -10 l20 -28 14 27 c8 14 14 31 13 38 0 6
-4 1 -9 -11 -5 -13 -14 -23 -19 -23 -11 0 -51 62 -51 79 0 6 -11 29 -25 52
-14 22 -23 44 -20 48 2 5 -2 14 -10 21 -8 7 -15 17 -15 22 0 5 -16 24 -35 42
-21 20 -33 40 -30 48 4 10 -8 24 -33 40 -27 18 -39 22 -39 12 0 -7 5 -10 10
-7 6 4 8 -1 4 -11 -6 -14 -3 -17 8 -12 13 5 14 2 4 -17 -7 -12 -17 -25 -23
-29 -7 -5 -7 -8 2 -8 8 0 10 -5 5 -12 -4 -7 -9 -24 -11 -37 -2 -13 -10 -30
-18 -38 -7 -8 -14 -21 -14 -29 0 -16 -64 -84 -78 -84 -11 0 -26 281 -18 327 3
17 2 35 -4 38 -6 4 -10 -79 -9 -238 0 -249 -5 -315 -23 -282 -6 9 -10 140 -9
306 l0 289 -25 0 -24 0 -1 -257z m18 105 c-2 -29 -3 -8 -3 47 0 55 1 79 3 53
2 -26 2 -71 0 -100z m0 -180 c-2 -18 -4 -4 -4 32 0 36 2 50 4 33 2 -18 2 -48
0 -65z"/>
<path d="M560 1385 c0 -10 -10 -15 -27 -15 -26 -1 -27 -1 -9 -15 12 -9 17 -22
13 -35 -6 -22 3 -26 21 -8 8 8 15 8 27 -2 13 -11 15 -9 15 14 0 14 5 26 10 26
6 0 10 5 10 10 0 6 -9 10 -20 10 -11 0 -20 7 -20 15 0 8 -4 15 -10 15 -5 0
-10 -7 -10 -15z"/>
<path d="M2106 1383 c-5 -14 -15 -23 -28 -23 -20 0 -20 -1 -4 -19 10 -11 14
-25 10 -36 -6 -15 -4 -15 14 -4 17 11 23 10 38 -2 16 -13 17 -12 11 5 -5 12
-1 26 9 37 16 18 16 19 -3 19 -11 0 -24 10 -30 23 l-10 22 -7 -22z"/>
<path d="M1858 1259 c3 -23 1 -30 -7 -24 -9 5 -9 1 1 -14 12 -21 13 -20 16 15
2 20 -1 41 -6 46 -5 5 -7 -4 -4 -23z"/>
<path d="M780 1193 c0 -13 5 -23 10 -23 13 0 13 11 0 30 -8 12 -10 11 -10 -7z"/>
<path d="M1882 1150 c26 -35 28 -36 28 -12 0 11 -11 24 -25 30 l-25 12 22 -30z"/>
<path d="M1915 780 c3 -5 8 -10 11 -10 2 0 4 5 4 10 0 6 -5 10 -11 10 -5 0 -7
-4 -4 -10z"/>
<path d="M1947 766 c-10 -14 -13 -26 -8 -26 13 0 33 28 29 41 -2 6 -12 0 -21
-15z"/>
<path d="M1346 735 c-3 -8 -1 -15 4 -15 6 0 10 7 10 15 0 8 -2 15 -4 15 -2 0
-6 -7 -10 -15z"/>
<path d="M1935 704 c-19 -15 -22 -21 -9 -15 18 9 52 41 43 41 -2 0 -17 -12
-34 -26z"/>
<path d="M1192 684 c4 -21 88 -29 88 -9 0 16 -22 25 -62 25 -22 0 -29 -4 -26
-16z"/>
<path d="M1343 680 c-25 -10 -31 -30 -9 -30 25 0 46 12 46 26 0 16 -6 16 -37
4z"/>
<path d="M1460 680 c0 -22 90 -26 97 -5 1 6 -19 11 -47 12 -28 2 -50 -2 -50
-7z"/>
<path d="M1210 611 c0 -5 11 -11 25 -13 17 -4 25 -1 25 8 0 8 -11 14 -25 14
-14 0 -25 -4 -25 -9z"/>
<path d="M1333 613 c-43 -5 -45 -33 -4 -33 40 0 84 18 76 30 -6 10 -12 10 -72
3z"/>
<path d="M1490 605 c0 -21 30 -31 41 -14 14 23 11 29 -16 29 -16 0 -25 -6 -25
-15z"/>
<path d="M1878 597 c-21 -6 -38 -15 -38 -20 0 -13 52 1 70 19 8 8 12 13 10 13
-3 -1 -22 -6 -42 -12z"/>
<path d="M1380 538 c-19 -4 -50 -5 -67 -2 -28 4 -33 2 -33 -16 0 -17 6 -20 38
-20 62 0 112 12 112 26 0 19 -11 22 -50 12z"/>
<path d="M411 518 c-12 -33 -35 -110 -36 -122 0 -5 12 -13 26 -17 25 -6 27 -4
33 30 8 52 7 104 -4 121 -7 11 -11 9 -19 -12z"/>
<path d="M2224 516 c-8 -22 5 -124 17 -132 6 -3 21 -3 34 0 l24 6 -23 67 c-23
68 -41 88 -52 59z"/>
<path d="M1790 491 c-15 -4 -20 -10 -13 -14 13 -8 43 1 43 14 0 5 -1 9 -2 8
-2 -1 -14 -4 -28 -8z"/>
<path d="M1260 453 c0 -10 27 -13 100 -13 60 0 100 4 100 10 0 12 8 11 -108
13 -68 2 -92 -1 -92 -10z"/>
<path d="M780 384 c-14 -7 -36 -14 -50 -14 -31 0 -55 -14 -46 -28 9 -16 72
-42 100 -42 21 0 26 5 26 25 0 30 9 31 44 4 15 -12 34 -18 43 -15 12 5 5 14
-28 38 -24 17 -45 35 -47 40 -5 10 -11 9 -42 -8z"/>
<path d="M1337 386 c-11 -29 -8 -46 8 -46 16 0 18 14 6 44 -7 18 -8 18 -14 2z"/>
<path d="M1370 377 c0 -19 26 -52 32 -41 8 13 -9 54 -22 54 -5 0 -10 -6 -10
-13z"/>
<path d="M1420 375 c0 -9 5 -13 10 -10 6 3 10 -3 10 -15 0 -12 -4 -19 -9 -15
-5 3 -13 0 -16 -6 -5 -7 0 -10 11 -7 22 4 27 59 7 66 -7 2 -13 -4 -13 -13z"/>
<path d="M1807 359 c-46 -30 -59 -49 -35 -49 6 0 26 11 43 25 35 26 45 24 45
-12 0 -28 26 -31 76 -7 60 29 58 42 -8 54 -24 5 -50 11 -58 15 -9 3 -36 -8
-63 -26z"/>
<path d="M1231 373 c0 -5 4 -17 9 -28 8 -18 9 -17 9 8 1 15 -3 27 -9 27 -5 0
-10 -3 -9 -7z"/>
<path d="M1283 373 c-7 -3 -13 -14 -13 -26 0 -13 3 -17 8 -11 4 6 12 13 19 15
7 2 9 9 5 15 -4 6 -13 9 -19 7z"/>
<path d="M1485 360 c3 -5 11 -10 16 -10 6 0 7 5 4 10 -3 6 -11 10 -16 10 -6 0
-7 -4 -4 -10z"/>
<path d="M1138 346 c-29 -10 -35 -21 -19 -30 5 -3 11 1 15 9 3 8 13 15 23 14
11 0 13 -3 6 -6 -7 -2 -13 -14 -13 -26 0 -12 4 -17 8 -12 4 6 17 10 29 9 13
-1 28 5 34 13 10 11 8 12 -15 3 -24 -9 -27 -8 -21 9 7 24 -12 31 -47 17z"/>
<path d="M1522 335 c-1 -42 14 -60 49 -60 19 -1 37 3 40 8 3 4 14 5 23 1 14
-5 17 -14 12 -35 -3 -17 -1 -29 5 -29 6 0 7 5 4 10 -3 6 1 10 11 10 13 0 14 3
4 15 -10 12 -10 15 1 15 8 1 2 7 -12 15 -15 8 -46 13 -73 11 -38 -2 -46 0 -43
13 2 9 10 15 18 13 11 -3 12 -1 1 10 -11 11 -14 10 -21 -1 -7 -11 -10 -10 -14
5 -4 18 -5 18 -5 -1z"/>
<path d="M1470 330 c0 -5 7 -10 15 -10 8 0 15 5 15 10 0 6 -7 10 -15 10 -8 0
-15 -4 -15 -10z"/>
<path d="M1045 278 c5 -26 4 -30 -5 -18 -10 13 -11 12 -6 -2 7 -22 -17 -24
-34 -3 -18 21 -40 19 -40 -5 0 -22 -15 -27 -24 -7 -2 6 -4 -3 -3 -20 1 -33 10
-42 22 -23 3 6 0 10 -7 10 -8 0 -6 5 5 11 9 5 17 17 17 24 0 20 10 19 25 -1
19 -26 70 -10 70 21 0 14 -4 25 -10 25 -5 0 -3 5 5 10 13 8 12 10 -3 10 -16 0
-18 -5 -12 -32z"/>
<path d="M1010 279 c0 -5 5 -7 10 -4 6 3 10 8 10 11 0 2 -4 4 -10 4 -5 0 -10
-5 -10 -11z"/>
<path d="M1696 261 c-4 -5 0 -11 6 -14 11 -3 11 -9 0 -26 -14 -24 -1 -29 17
-7 9 11 10 20 1 35 -12 23 -16 25 -24 12z"/>
<path d="M885 218 c5 -17 4 -19 -4 -9 -11 17 -70 24 -87 10 -8 -7 -14 -6 -19
1 -11 17 -42 11 -48 -10 -3 -13 0 -20 9 -20 8 0 14 7 14 16 0 8 4 13 9 10 5
-3 7 -16 4 -29 -4 -18 -3 -19 6 -7 9 13 11 13 11 0 0 -21 47 -20 60 0 9 13 10
13 11 0 0 -10 3 -8 9 5 5 11 9 14 9 6 1 -11 4 -11 16 -1 17 14 20 50 4 50 -6
0 -8 -9 -4 -22z m-55 -29 c0 -11 -4 -17 -10 -14 -5 3 -10 13 -10 21 0 8 5 14
10 14 6 0 10 -9 10 -21z"/>
<path d="M1772 215 c3 -14 1 -25 -4 -25 -5 0 -6 -5 -3 -10 4 -7 13 -7 24 0 12
6 22 5 29 -2 9 -9 12 -8 12 5 0 19 -34 57 -51 57 -7 0 -9 -10 -7 -25z m28 -5
c0 -5 -2 -10 -4 -10 -3 0 -8 5 -11 10 -3 6 -1 10 4 10 6 0 11 -4 11 -10z"/>
<path d="M1091 221 c-18 -12 29 -25 146 -42 86 -12 221 -2 307 22 65 18 20 29
-54 13 -85 -18 -239 -17 -315 1 -72 17 -67 17 -84 6z"/>
<path d="M1834 208 c3 -13 6 -29 6 -35 0 -30 15 -10 16 22 1 25 -3 35 -13 35
-11 0 -14 -7 -9 -22z"/>
<path d="M1875 220 c-4 -6 -1 -18 6 -26 10 -13 10 -17 -2 -25 -12 -7 -11 -9 3
-9 23 0 32 18 18 35 -13 16 -3 20 18 7 7 -5 10 -16 6 -28 -6 -15 -4 -17 6 -7
8 7 10 19 5 30 -5 10 -7 21 -7 26 3 11 -46 8 -53 -3z"/>
<path d="M970 210 c0 -5 7 -7 15 -4 8 4 15 8 15 10 0 2 -7 4 -15 4 -8 0 -15
-4 -15 -10z"/>
<path d="M1730 190 c0 -5 5 -10 10 -10 6 0 10 5 10 10 0 6 -4 10 -10 10 -5 0
-10 -4 -10 -10z"/>
</g>
</svg>
